<svg width="1160" height="1164" viewBox="0 0 1160 1164" fill="none" xmlns="http://www.w3.org/2000/svg">
<g filter="url(#filter0_f_1396_3133)">
<path d="M679.5 294L809.75 312.5L865.5 356.75L851.5 438.25L865.5 547.5L760.75 566L679.5 638.25L595.75 675.5L498 608L451.5 547.5L460.75 428.75L470.25 342.75L537.5 294H679.5Z" fill="#082F6E"/>
</g>
<g filter="url(#filter1_f_1396_3133)">
<path d="M698 484.5L828.25 503L884 547.25L870 628.75L765.25 647.25L779.25 756.5L698 828.75L614.25 866L516.5 798.5L470 738L516.5 628.75L570 582.25H653.75L698 484.5Z" fill="#2352A5"/>
</g>
<g filter="url(#filter2_f_1396_3133)">
<path d="M491 526.5L621.25 545L677 589.25L663 670.75L635.25 780L572.25 798.5L491 870.75L407.25 908L309.5 840.5L263 780L309.5 670.75L363 624.25L391.25 573.25L491 526.5Z" fill="#67AEBA"/>
</g>
<g filter="url(#filter3_f_1396_3133)">
<path d="M491 294L621.25 312.5L677 356.75L663 438.25L649.25 547.5L572.25 566L491 638.25L407.25 675.5L309.5 608L263 547.5L309.5 438.25L363 391.75L426 312.5L491 294Z" fill="#F9F9F9"/>
</g>
<defs>
<filter id="filter0_f_1396_3133" x="157.7" y="0.200012" width="1001.6" height="969.1" filterUnits="userSpaceOnUse" color-interpolation-filters="sRGB">
<feFlood flood-opacity="0" result="BackgroundImageFix"/>
<feBlend mode="normal" in="SourceGraphic" in2="BackgroundImageFix" result="shape"/>
<feGaussianBlur stdDeviation="146.9" result="effect1_foregroundBlur_1396_3133"/>
</filter>
<filter id="filter1_f_1396_3133" x="227.25" y="241.75" width="899.5" height="867" filterUnits="userSpaceOnUse" color-interpolation-filters="sRGB">
<feFlood flood-opacity="0" result="BackgroundImageFix"/>
<feBlend mode="normal" in="SourceGraphic" in2="BackgroundImageFix" result="shape"/>
<feGaussianBlur stdDeviation="121.375" result="effect1_foregroundBlur_1396_3133"/>
</filter>
<filter id="filter2_f_1396_3133" x="79.05" y="342.55" width="781.9" height="749.4" filterUnits="userSpaceOnUse" color-interpolation-filters="sRGB">
<feFlood flood-opacity="0" result="BackgroundImageFix"/>
<feBlend mode="normal" in="SourceGraphic" in2="BackgroundImageFix" result="shape"/>
<feGaussianBlur stdDeviation="91.975" result="effect1_foregroundBlur_1396_3133"/>
</filter>
<filter id="filter3_f_1396_3133" x="108.9" y="139.9" width="722.2" height="689.7" filterUnits="userSpaceOnUse" color-interpolation-filters="sRGB">
<feFlood flood-opacity="0" result="BackgroundImageFix"/>
<feBlend mode="normal" in="SourceGraphic" in2="BackgroundImageFix" result="shape"/>
<feGaussianBlur stdDeviation="77.05" result="effect1_foregroundBlur_1396_3133"/>
</filter>
</defs>
</svg>
